<?xml version="1.0" encoding="UTF-8" standalone="no"?><!-- Generator: Gravit.io --><svg xmlns="http://www.w3.org/2000/svg" xmlns:xlink="http://www.w3.org/1999/xlink" style="isolation:isolate" viewBox="950.048 -233.44 95.832 178.344" width="95.832pt" height="178.344pt"><path d=" M 1000.232 -96.424 L 1000.232 -87.856 L 984.968 -87.856 L 984.968 -83.392 L 984.968 -83.392 Q 984.968 -79.864 984.5 -75.472 L 984.5 -75.472 L 984.5 -75.472 Q 984.032 -71.08 982.34 -67.048 L 982.34 -67.048 L 982.34 -67.048 Q 980.648 -63.016 977.3 -59.92 L 977.3 -59.92 L 977.3 -59.92 Q 973.952 -56.824 968.12 -55.816 L 968.12 -55.816 L 966.248 -64.456 L 966.248 -64.456 Q 969.992 -64.456 972.152 -66.364 L 972.152 -66.364 L 972.152 -66.364 Q 974.312 -68.272 975.392 -71.152 L 975.392 -71.152 L 975.392 -71.152 Q 976.472 -74.032 976.724 -77.308 L 976.724 -77.308 L 976.724 -77.308 Q 976.976 -80.584 976.976 -83.392 L 976.976 -83.392 L 976.976 -87.856 L 961.712 -87.856 L 961.712 -96.424 L 976.976 -96.424 L 976.976 -109.24 L 984.968 -109.24 L 984.968 -96.424 L 1000.232 -96.424 L 1000.232 -96.424 Z  M 998.792 -56.032 L 995.696 -60.856 L 1016.576 -106.72 L 1023.92 -103.264 L 1007 -66.544 L 1027.736 -72.16 L 1021.76 -85.624 L 1029.248 -89.008 L 1043.072 -58.48 L 1035.656 -55.096 L 1031.336 -64.312 L 998.792 -56.032 L 998.792 -56.032 Z  M 991.088 -116.8 L 983.096 -116.8 L 983.096 -120.976 L 983.096 -120.976 Q 976.976 -121.48 971.612 -123.388 L 971.612 -123.388 L 971.612 -123.388 Q 966.248 -125.296 962.288 -128.932 L 962.288 -128.932 L 962.288 -128.932 Q 958.328 -132.568 956.06 -138.004 L 956.06 -138.004 L 956.06 -138.004 Q 953.792 -143.44 953.792 -151 L 953.792 -151 L 953.792 -166.696 L 992.672 -166.696 L 992.672 -158.128 L 961.784 -158.128 L 961.784 -150.496 L 961.784 -150.496 Q 961.784 -145.24 963.476 -141.424 L 963.476 -141.424 L 963.476 -141.424 Q 965.168 -137.608 968.084 -135.016 L 968.084 -135.016 L 968.084 -135.016 Q 971 -132.424 974.888 -131.092 L 974.888 -131.092 L 974.888 -131.092 Q 978.776 -129.76 983.096 -129.472 L 983.096 -129.472 L 983.096 -144.88 L 991.088 -144.88 L 991.088 -116.8 L 991.088 -116.8 Z  M 999.872 -118.24 L 996.776 -123.064 L 1017.656 -168.928 L 1025 -165.472 L 1008.08 -128.752 L 1028.816 -134.368 L 1022.84 -147.832 L 1030.328 -151.216 L 1044.152 -120.688 L 1036.736 -117.304 L 1032.416 -126.52 L 999.872 -118.24 L 999.872 -118.24 Z  M 960.632 -233.44 L 968.48 -231.568 L 968.48 -231.568 Q 967.976 -229.192 967.364 -226.816 L 967.364 -226.816 L 967.364 -226.816 Q 966.752 -224.44 966.032 -222.136 L 966.032 -222.136 L 994.904 -226.24 L 996.2 -217.672 L 985.472 -216.232 L 985.472 -216.232 Q 986.048 -212.056 986.228 -209.428 L 986.228 -209.428 L 986.228 -209.428 Q 986.408 -206.8 986.408 -204.856 L 986.408 -204.856 L 986.408 -204.856 Q 986.408 -199.528 985.112 -195.208 L 985.112 -195.208 L 985.112 -195.208 Q 983.816 -190.888 981.692 -187.576 L 981.692 -187.576 L 981.692 -187.576 Q 979.568 -184.264 976.832 -181.996 L 976.832 -181.996 L 976.832 -181.996 Q 974.096 -179.728 971.144 -178.576 L 971.144 -178.576 L 966.896 -185.92 L 966.896 -185.92 Q 972.08 -188.008 975.284 -192.724 L 975.284 -192.724 L 975.284 -192.724 Q 978.488 -197.44 978.488 -204.712 L 978.488 -204.712 L 978.488 -204.712 Q 978.488 -206.368 978.272 -208.708 L 978.272 -208.708 L 978.272 -208.708 Q 978.056 -211.048 977.48 -215.008 L 977.48 -215.008 L 962.864 -213.064 L 962.864 -213.064 Q 960.344 -206.872 957.248 -201.256 L 957.248 -201.256 L 950.048 -204.712 L 950.048 -204.712 Q 951.848 -208.168 953.396 -211.552 L 953.396 -211.552 L 953.396 -211.552 Q 954.944 -214.936 956.276 -218.464 L 956.276 -218.464 L 956.276 -218.464 Q 957.608 -221.992 958.688 -225.7 L 958.688 -225.7 L 958.688 -225.7 Q 959.768 -229.408 960.632 -233.44 L 960.632 -233.44 L 960.632 -233.44 Z  M 998.504 -180.88 L 998.504 -180.88 L 998.504 -180.88 Z  M 1001.6 -180.448 L 998.504 -185.272 L 1019.384 -231.136 L 1026.728 -227.68 L 1009.808 -190.96 L 1030.544 -196.576 L 1024.568 -210.04 L 1032.056 -213.424 L 1045.88 -182.896 L 1038.464 -179.512 L 1034.144 -188.728 L 1001.6 -180.448 L 1001.6 -180.448 Z " fill="rgb(245,238,227)"/></svg>