<?xml version="1.0" encoding="UTF-8" standalone="no"?><!-- Generator: Gravit.io --><svg xmlns="http://www.w3.org/2000/svg" xmlns:xlink="http://www.w3.org/1999/xlink" style="isolation:isolate" viewBox="-106 70 1085 866" width="1085pt" height="866pt"><g><path d=" M 403.141 538 L -72 396 L -72 120 L 403.141 538 Z " fill="rgb(246,55,81)"/><path d=" M 382.298 537 L 76 107 L 332 93 L 382.298 537 Z " fill="rgb(246,55,81)"/><path d=" M 374.673 538 L 489 96.414 L 674 99.994 L 374.673 538 Z " fill="rgb(246,55,81)"/><path d=" M 387.933 538 L 805 70 L 857 237 L 387.933 538 Z " fill="rgb(246,55,81)"/><path d=" M 404.33 529 L 979 286 L 979 467 L 404.33 529 Z " fill="rgb(246,55,81)"/><path d=" M 387.933 526 L 415.767 936 L 674 936 L 387.933 526 Z " fill="rgb(246,55,81)"/><path d=" M 387.933 526 L 851 897 L 972 598 L 387.933 526 Z " fill="rgb(246,55,81)"/><path d=" M 396 534 L -106 534 L -78 682 L 396 534 Z " fill="rgb(246,55,81)"/><path d=" M 411.783 534 L -77 819 L 215 815 L 411.783 534 Z " fill="rgb(246,55,81)"/></g></svg>