<?xml version="1.0" encoding="UTF-8" standalone="no"?><!-- Generator: Gravit.io --><svg xmlns="http://www.w3.org/2000/svg" xmlns:xlink="http://www.w3.org/1999/xlink" style="isolation:isolate" viewBox="-767 -586 2334 2157" width="2334pt" height="2157pt"><g><path d=" M 402.029 501 L -761 227 L -761 -316 L 402.029 501 Z " fill="rgb(246,55,81)"/><path d=" M 402.029 501 L -447 -582 L 222 -586 L 402.029 501 Z " fill="rgb(246,55,81)"/><path d=" M 402.029 501 L 621.029 -582 L 1134 -582 L 402.029 501 Z " fill="rgb(246,55,81)"/><path d=" M 402.029 501 L 1393 -580 L 1567 -165 L 402.029 501 Z " fill="rgb(246,55,81)"/><path d=" M 402.029 501 L 1560 80 L 1562 436 L 402.029 501 Z " fill="rgb(246,55,81)"/><path d=" M 402.029 501 L 337 1569 L 1079 1569 L 402.029 501 Z " fill="rgb(246,55,81)"/><path d=" M 402.029 501 L 1565 1553 L 1565 703 L 402.029 501 Z " fill="rgb(246,55,81)"/><path d=" M 402.029 501 L -763 554 L -763 976 L 402.029 501 Z " fill="rgb(246,55,81)"/><path d=" M 402.029 501 L -767 1278 L -110 1571 L 402.029 501 Z " fill="rgb(246,55,81)"/></g></svg>